<?xml version="1.0" encoding="UTF-8" standalone="no"?>
<svg
   xmlns:osb="http://www.openswatchbook.org/uri/2009/osb"
   xmlns:dc="http://purl.org/dc/elements/1.1/"
   xmlns:cc="http://creativecommons.org/ns#"
   xmlns:rdf="http://www.w3.org/1999/02/22-rdf-syntax-ns#"
   xmlns:svg="http://www.w3.org/2000/svg"
   xmlns="http://www.w3.org/2000/svg"
   xmlns:xlink="http://www.w3.org/1999/xlink"
   xmlns:sodipodi="http://sodipodi.sourceforge.net/DTD/sodipodi-0.dtd"
   xmlns:inkscape="http://www.inkscape.org/namespaces/inkscape"
   version="1.1"
   id="svg2"
   width="259.60001"
   height="265.20001"
   viewBox="0 0 259.60001 265.20001"
   sodipodi:docname="ventus-trade-logo.svg"
   inkscape:version="1.0.2-2 (e86c870879, 2021-01-15)">
  <metadata
     id="metadata8">
    <rdf:RDF>
      <cc:Work
         rdf:about="">
        <dc:format>image/svg+xml</dc:format>
        <dc:type
           rdf:resource="http://purl.org/dc/dcmitype/StillImage" />
        <dc:title></dc:title>
      </cc:Work>
    </rdf:RDF>
  </metadata>
  <defs
     id="defs6">
    <linearGradient
       inkscape:collect="always"
       id="linearGradient2922">
      <stop
         style="stop-color:#d2f0ff;stop-opacity:1"
         offset="0"
         id="stop2918" />
      <stop
         style="stop-color:#ffffff;stop-opacity:0"
         offset="1"
         id="stop2920" />
    </linearGradient>
    <linearGradient
       inkscape:collect="always"
       id="linearGradient2885-1-6-8">
      <stop
         style="stop-color:#8c96ff;stop-opacity:1"
         offset="0"
         id="stop2881" />
      <stop
         style="stop-color:#000028;stop-opacity:1"
         offset="1"
         id="stop2883" />
    </linearGradient>
    <linearGradient
       id="linearGradient2785"
       osb:paint="solid">
      <stop
         style="stop-color:#808080;stop-opacity:1;"
         offset="0"
         id="stop2783" />
    </linearGradient>
    <filter
       inkscape:collect="always"
       style="color-interpolation-filters:sRGB"
       id="filter2841"
       x="-1.08e-05"
       width="1.0000216"
       y="-1.08e-05"
       height="1.0000216">
      <feGaussianBlur
         inkscape:collect="always"
         stdDeviation="0.0010469978"
         id="feGaussianBlur2843" />
    </filter>
    <linearGradient
       inkscape:collect="always"
       xlink:href="#linearGradient2885-1-6-8"
       id="linearGradient2887"
       x1="-52.251305"
       y1="-37.463196"
       x2="211.96284"
       y2="223.7933"
       gradientUnits="userSpaceOnUse"
       gradientTransform="translate(2.3286826,-4.9306251)" />
    <filter
       inkscape:collect="always"
       style="color-interpolation-filters:sRGB"
       id="filter2899"
       x="-1.2181911e-06"
       width="1.0000024"
       y="-1.1823442e-06"
       height="1.0000024">
      <feGaussianBlur
         inkscape:collect="always"
         stdDeviation="9.8991981e-05"
         id="feGaussianBlur2901" />
    </filter>
    <linearGradient
       inkscape:collect="always"
       xlink:href="#linearGradient2922"
       id="linearGradient2924"
       x1="-194.66072"
       y1="-113.03411"
       x2="270.1076"
       y2="343.96957"
       gradientUnits="userSpaceOnUse" />
    <linearGradient
       inkscape:collect="always"
       xlink:href="#linearGradient2885-1-6-8"
       id="linearGradient2930"
       gradientUnits="userSpaceOnUse"
       gradientTransform="translate(2.3286826,-4.9306251)"
       x1="-52.251305"
       y1="-37.463196"
       x2="211.96284"
       y2="223.7933" />
  </defs>
  <sodipodi:namedview
     pagecolor="#ffffff"
     bordercolor="#666666"
     borderopacity="1"
     objecttolerance="10"
     gridtolerance="10"
     guidetolerance="10"
     inkscape:pageopacity="0"
     inkscape:pageshadow="2"
     inkscape:window-width="1366"
     inkscape:window-height="705"
     id="namedview4"
     showgrid="false"
     inkscape:zoom="1.0143288"
     inkscape:cx="-33.410587"
     inkscape:cy="79.280092"
     inkscape:window-x="-32000"
     inkscape:window-y="-32000"
     inkscape:window-maximized="0"
     inkscape:current-layer="g10" />
  <g
     inkscape:groupmode="layer"
     inkscape:label="Image"
     id="g10">
    <rect
       style="fill:url(#linearGradient2930);fill-opacity:1;stroke-width:7.26155306;filter:url(#filter2841);stroke:#d2c8ff;stroke-miterlimit:4;stroke-dasharray:174.27727351,174.27727351;paint-order:fill markers stroke;stroke-linejoin:miter;stroke-dashoffset:0;stroke-opacity:1"
       id="rect16"
       width="232.66618"
       height="232.66618"
       x="16.130913"
       y="16.758596"
       ry="49.293682"
       transform="matrix(1.1016927,0,0,1.1016927,-16.134621,-14.026132)"
       inkscape:export-xdpi="192"
       inkscape:export-ydpi="192" />
    <path
       style="fill:url(#linearGradient2924);fill-opacity:1;stroke-width:0.304833;filter:url(#filter2899)"
       d="M 60.622083,238.1478 C 58.274863,236.34812 41.882487,223.91898 24.194567,210.52749 6.5066487,197.136 -8.1024603,186.03833 -8.2701183,185.866 c -0.167658,-0.17234 0.0381,-0.10686 0.457249,0.14551 0.419145,0.25236 17.051581,9.76174 36.9609683,21.13194 l 36.198884,20.67311 v 6.81617 c 0,3.74889 -0.10288,6.80965 -0.22862,6.80169 -0.12575,-0.008 -2.14907,-1.48693 -4.49628,-3.28662 z m 6.24907,-3.51507 v -6.81617 l 36.198877,-20.67311 c 19.90939,-11.3702 36.54183,-20.87958 36.96097,-21.13194 0.41915,-0.25237 0.62491,-0.31473 0.45725,-0.13858 -0.49698,0.52214 -73.247267,55.57596 -73.440257,55.57596 -0.0973,0 -0.17684,-3.06727 -0.17684,-6.81616 z M 43.094197,162.26951 C 15.941718,118.66218 16.84733,120.12546 17.011592,120.12546 c 0.07428,0 10.98206,13.17058 24.239504,29.26797 l 24.104447,29.26797 -0.0805,9.55085 -0.0805,9.55084 z m 23.778096,26.06112 -0.001,-9.67961 24.10016,-29.26279 c 13.255087,-16.09452 24.161397,-29.26277 24.236237,-29.26277 0.16395,0 1.37798,-1.96133 -25.472657,41.15242 -11.95552,19.19685 -21.99025,35.31488 -22.29939,35.81785 -0.55362,0.90075 -0.56209,0.76898 -0.56321,-8.7651 z M 39.702595,145.21601 C 25.724294,128.33439 14.090057,114.23969 13.848736,113.89444 c -0.241324,-0.34524 0.58449,0.3325 1.835139,1.50611 1.250646,1.17361 12.936476,12.06241 25.968509,24.19735 l 23.694599,22.06352 v 7.12422 c 0,3.91832 -0.0516,7.12422 -0.11465,7.12422 -0.0631,0 -11.55144,-13.81224 -25.529738,-30.69385 z m 27.168558,23.64259 v -7.18674 l 23.69599,-22.06874 c 13.032797,-12.13781 24.725667,-23.02896 25.984157,-24.20257 1.25849,-1.17361 2.13633,-1.92807 1.95076,-1.67658 -0.64357,0.87215 -50.482657,61.12203 -51.055317,61.72017 -0.56496,0.59009 -0.57559,0.46842 -0.57559,-6.58554 z m -79.508089,-5.50922 c -0.283244,-1.1421 -17.421985,-113.592099 -17.359697,-113.89973 0.04587,-0.226527 4.173924,19.004428 9.173463,42.735453 l 9.090072,43.147317 -0.339747,12.89652 c -0.324795,12.32901 -0.446607,15.59416 -0.564091,15.12044 z m 157.240546,-2.85899 c 6e-5,-1.66261 -0.14936,-7.99385 -0.33204,-14.06942 l -0.33215,-11.04649 9.09598,-43.172867 c 5.00278,-23.745085 9.13346,-42.985503 9.17929,-42.756488 0.0999,0.499215 -17.25789,113.714885 -17.46627,113.923255 -0.0797,0.0797 -0.14488,-1.21538 -0.14481,-2.87799 z M 17.267508,80.853188 C -8.9247153,59.281002 -30.529734,41.434399 -30.743644,41.19407 -31.248866,40.626452 -36.490165,37.310286 17.869288,71.951433 L 65.346983,102.2071 v 8.95918 c 0,4.92755 -0.10288,8.9479 -0.22862,8.93412 -0.12575,-0.0138 -21.658629,-17.67503 -47.850855,-39.247212 z M 66.871153,111.175 v -8.95045 L 111.75776,73.619182 c 53.01022,-33.782384 52.63609,-33.545332 52.05019,-32.979416 -0.88714,0.85688 -96.622307,79.485694 -96.778467,79.485694 -0.0871,0 -0.15833,-4.02771 -0.15833,-8.95046 z M -30.322359,48.184935 c 0,-0.419145 0.06919,-0.590613 0.153754,-0.38104 0.08456,0.209572 0.08456,0.552509 0,0.762081 -0.08456,0.209573 -0.153754,0.0381 -0.153754,-0.381041 z m 192.654279,0 c 0,-0.419145 0.0692,-0.590613 0.15375,-0.38104 0.0846,0.209572 0.0846,0.552509 0,0.762081 -0.0846,0.209573 -0.15375,0.0381 -0.15375,-0.381041 z"
       id="path2889"
       transform="matrix(0.97917257,0,0,0.97917257,64.772698,-5.4424407)" />
  </g>
</svg>
